<svg xmlns="http://www.w3.org/2000/svg" viewBox="0 0 14 14" width="28" height="28" shape-rendering="crispEdges" role="img" aria-label="Codex operator icon — engineer">
  <g fill="#3A4658">
    <rect x="6" y="0" width="2" height="1"/>
    <rect x="3" y="5" width="8" height="1"/>
  </g>
  <g fill="#1F2733">
    <rect x="4" y="1" width="2" height="1"/>
    <rect x="8" y="1" width="2" height="1"/>
    <rect x="3" y="2" width="8" height="1"/>
    <rect x="3" y="3" width="8" height="1"/>
    <rect x="3" y="4" width="8" height="1"/>
    <rect x="3" y="6" width="8" height="1"/>
    <rect x="5" y="8" width="1" height="1"/>
    <rect x="8" y="8" width="1" height="1"/>
  </g>
  <g fill="#BFA386">
    <rect x="3" y="7" width="1" height="1"/>
    <rect x="6" y="7" width="2" height="1"/>
    <rect x="10" y="7" width="1" height="1"/>
    <rect x="3" y="8" width="2" height="1"/>
    <rect x="6" y="8" width="2" height="1"/>
    <rect x="9" y="8" width="2" height="1"/>
    <rect x="5" y="9" width="4" height="1"/>
    <rect x="6" y="10" width="2" height="1"/>
  </g>
  <g fill="#5E7896">
    <rect x="4" y="7" width="2" height="1"/>
    <rect x="8" y="7" width="2" height="1"/>
    <rect x="6" y="11" width="2" height="1"/>
  </g>
  <g fill="#8E7259">
    <rect x="4" y="9" width="1" height="1"/>
    <rect x="9" y="9" width="1" height="1"/>
  </g>
  <g fill="#1B2330">
    <rect x="2" y="11" width="4" height="1"/>
    <rect x="8" y="11" width="4" height="1"/>
  </g>
  <g fill="#161D26">
    <rect x="2" y="12" width="10" height="1"/>
    <rect x="1" y="13" width="12" height="1"/>
  </g>
</svg>
