<svg xmlns="http://www.w3.org/2000/svg" viewBox="0 0 48 56" width="384" height="448" shape-rendering="crispEdges" role="img" aria-label="Gemini operator portrait — analyst">
  <g fill="#3A4658">
    <rect x="13" y="5" width="22" height="1"/>
    <rect x="8" y="17" width="4" height="1"/>
    <rect x="36" y="17" width="4" height="1"/>
    <rect x="7" y="18" width="1" height="1"/>
    <rect x="12" y="18" width="1" height="1"/>
    <rect x="35" y="18" width="1" height="1"/>
    <rect x="40" y="18" width="1" height="1"/>
    <rect x="7" y="19" width="1" height="1"/>
    <rect x="12" y="19" width="1" height="1"/>
    <rect x="35" y="19" width="1" height="1"/>
    <rect x="40" y="19" width="1" height="1"/>
    <rect x="7" y="20" width="1" height="1"/>
    <rect x="12" y="20" width="1" height="1"/>
    <rect x="35" y="20" width="1" height="1"/>
    <rect x="40" y="20" width="1" height="1"/>
    <rect x="7" y="21" width="1" height="1"/>
    <rect x="12" y="21" width="1" height="1"/>
    <rect x="35" y="21" width="1" height="1"/>
    <rect x="40" y="21" width="1" height="1"/>
    <rect x="7" y="22" width="1" height="1"/>
    <rect x="12" y="22" width="1" height="1"/>
    <rect x="35" y="22" width="1" height="1"/>
    <rect x="40" y="22" width="1" height="1"/>
    <rect x="7" y="23" width="1" height="1"/>
    <rect x="12" y="23" width="1" height="1"/>
    <rect x="35" y="23" width="1" height="1"/>
    <rect x="40" y="23" width="1" height="1"/>
    <rect x="8" y="24" width="4" height="1"/>
    <rect x="36" y="24" width="4" height="1"/>
  </g>
  <g fill="#1F2733">
    <rect x="13" y="6" width="22" height="1"/>
    <rect x="11" y="16" width="2" height="1"/>
    <rect x="35" y="16" width="2" height="1"/>
    <rect x="8" y="18" width="4" height="1"/>
    <rect x="36" y="18" width="4" height="1"/>
    <rect x="8" y="19" width="1" height="1"/>
    <rect x="11" y="19" width="1" height="1"/>
    <rect x="36" y="19" width="1" height="1"/>
    <rect x="39" y="19" width="1" height="1"/>
    <rect x="8" y="20" width="1" height="1"/>
    <rect x="11" y="20" width="1" height="1"/>
    <rect x="36" y="20" width="1" height="1"/>
    <rect x="39" y="20" width="1" height="1"/>
    <rect x="8" y="21" width="1" height="1"/>
    <rect x="11" y="21" width="1" height="1"/>
    <rect x="15" y="21" width="2" height="1"/>
    <rect x="26" y="21" width="5" height="1"/>
    <rect x="36" y="21" width="1" height="1"/>
    <rect x="39" y="21" width="1" height="1"/>
    <rect x="8" y="22" width="1" height="1"/>
    <rect x="11" y="22" width="1" height="1"/>
    <rect x="36" y="22" width="1" height="1"/>
    <rect x="39" y="22" width="1" height="1"/>
    <rect x="8" y="23" width="4" height="1"/>
    <rect x="17" y="23" width="1" height="1"/>
    <rect x="27" y="23" width="2" height="1"/>
    <rect x="36" y="23" width="4" height="1"/>
    <rect x="27" y="24" width="2" height="1"/>
  </g>
  <g fill="#5A6680">
    <rect x="15" y="7" width="3" height="1"/>
    <rect x="14" y="8" width="5" height="1"/>
    <rect x="13" y="9" width="7" height="1"/>
    <rect x="13" y="10" width="8" height="1"/>
    <rect x="14" y="17" width="1" height="1"/>
    <rect x="16" y="17" width="1" height="1"/>
    <rect x="18" y="17" width="1" height="1"/>
  </g>
  <g fill="#3E4A5C">
    <rect x="18" y="7" width="15" height="1"/>
    <rect x="19" y="8" width="15" height="1"/>
    <rect x="20" y="9" width="15" height="1"/>
    <rect x="12" y="10" width="1" height="1"/>
    <rect x="21" y="10" width="15" height="1"/>
    <rect x="11" y="11" width="26" height="1"/>
    <rect x="11" y="12" width="26" height="1"/>
    <rect x="11" y="13" width="26" height="1"/>
    <rect x="12" y="14" width="24" height="1"/>
    <rect x="13" y="15" width="22" height="1"/>
    <rect x="14" y="16" width="20" height="1"/>
    <rect x="12" y="17" width="2" height="1"/>
    <rect x="15" y="17" width="1" height="1"/>
    <rect x="17" y="17" width="1" height="1"/>
    <rect x="19" y="17" width="3" height="1"/>
    <rect x="23" y="17" width="10" height="1"/>
    <rect x="13" y="18" width="9" height="1"/>
    <rect x="13" y="19" width="8" height="1"/>
    <rect x="14" y="20" width="3" height="1"/>
  </g>
  <g fill="#BFA386">
    <rect x="11" y="15" width="2" height="1"/>
    <rect x="35" y="15" width="2" height="1"/>
    <rect x="13" y="16" width="1" height="1"/>
    <rect x="35" y="17" width="1" height="1"/>
    <rect x="22" y="18" width="9" height="1"/>
    <rect x="21" y="19" width="10" height="1"/>
    <rect x="13" y="20" width="1" height="1"/>
    <rect x="17" y="20" width="14" height="1"/>
    <rect x="13" y="21" width="2" height="1"/>
    <rect x="17" y="21" width="9" height="1"/>
    <rect x="13" y="22" width="18" height="1"/>
    <rect x="13" y="23" width="4" height="1"/>
    <rect x="18" y="23" width="9" height="1"/>
    <rect x="29" y="23" width="2" height="1"/>
    <rect x="12" y="24" width="15" height="1"/>
    <rect x="30" y="24" width="6" height="1"/>
    <rect x="11" y="25" width="16" height="1"/>
    <rect x="29" y="25" width="8" height="1"/>
    <rect x="11" y="26" width="12" height="1"/>
    <rect x="24" y="26" width="13" height="1"/>
    <rect x="11" y="27" width="12" height="1"/>
    <rect x="24" y="27" width="13" height="1"/>
    <rect x="11" y="28" width="13" height="1"/>
    <rect x="25" y="28" width="12" height="1"/>
    <rect x="12" y="29" width="24" height="1"/>
    <rect x="13" y="30" width="8" height="1"/>
    <rect x="26" y="30" width="9" height="1"/>
    <rect x="15" y="32" width="1" height="1"/>
    <rect x="32" y="32" width="1" height="1"/>
    <rect x="16" y="33" width="2" height="1"/>
    <rect x="30" y="33" width="2" height="1"/>
    <rect x="20" y="34" width="8" height="1"/>
    <rect x="21" y="35" width="6" height="1"/>
    <rect x="21" y="36" width="6" height="1"/>
    <rect x="21" y="37" width="6" height="1"/>
    <rect x="22" y="38" width="4" height="1"/>
  </g>
  <g fill="#D8C2A6">
    <rect x="34" y="16" width="1" height="1"/>
    <rect x="33" y="17" width="2" height="1"/>
    <rect x="31" y="18" width="4" height="1"/>
    <rect x="31" y="19" width="4" height="1"/>
    <rect x="31" y="20" width="4" height="1"/>
    <rect x="31" y="21" width="4" height="1"/>
    <rect x="31" y="22" width="4" height="1"/>
    <rect x="31" y="23" width="4" height="1"/>
  </g>
  <g fill="#B5A4F0">
    <rect x="22" y="17" width="1" height="1"/>
    <rect x="9" y="48" width="4" height="1"/>
    <rect x="9" y="49" width="1" height="1"/>
    <rect x="9" y="50" width="1" height="1"/>
    <rect x="11" y="50" width="2" height="1"/>
    <rect x="9" y="51" width="1" height="1"/>
    <rect x="12" y="51" width="1" height="1"/>
    <rect x="9" y="52" width="4" height="1"/>
  </g>
  <g fill="#0B0F14">
    <rect x="9" y="19" width="2" height="1"/>
    <rect x="37" y="19" width="2" height="1"/>
    <rect x="10" y="21" width="1" height="1"/>
    <rect x="38" y="21" width="1" height="1"/>
    <rect x="9" y="22" width="2" height="1"/>
    <rect x="37" y="22" width="2" height="1"/>
  </g>
  <g fill="#9F8CE0">
    <rect x="9" y="20" width="2" height="1"/>
    <rect x="37" y="20" width="2" height="1"/>
    <rect x="20" y="41" width="1" height="1"/>
    <rect x="27" y="41" width="1" height="1"/>
    <rect x="18" y="42" width="2" height="1"/>
    <rect x="28" y="42" width="2" height="1"/>
    <rect x="17" y="43" width="2" height="1"/>
    <rect x="29" y="43" width="2" height="1"/>
    <rect x="16" y="44" width="2" height="1"/>
    <rect x="30" y="44" width="2" height="1"/>
    <rect x="15" y="45" width="2" height="1"/>
    <rect x="31" y="45" width="2" height="1"/>
    <rect x="7" y="46" width="9" height="1"/>
    <rect x="32" y="46" width="2" height="1"/>
    <rect x="6" y="47" width="1" height="1"/>
    <rect x="13" y="47" width="1" height="1"/>
    <rect x="16" y="47" width="1" height="1"/>
    <rect x="34" y="47" width="1" height="1"/>
    <rect x="6" y="48" width="1" height="1"/>
    <rect x="16" y="48" width="1" height="1"/>
    <rect x="6" y="49" width="1" height="1"/>
    <rect x="16" y="49" width="1" height="1"/>
    <rect x="6" y="50" width="1" height="1"/>
    <rect x="16" y="50" width="1" height="1"/>
    <rect x="6" y="51" width="1" height="1"/>
    <rect x="16" y="51" width="1" height="1"/>
    <rect x="6" y="52" width="1" height="1"/>
    <rect x="16" y="52" width="1" height="1"/>
    <rect x="7" y="53" width="9" height="1"/>
  </g>
  <g fill="#FFFFFF">
    <rect x="9" y="21" width="1" height="1"/>
    <rect x="37" y="21" width="1" height="1"/>
  </g>
  <g fill="#E6ECF5">
    <rect x="29" y="24" width="1" height="1"/>
  </g>
  <g fill="#8E7259">
    <rect x="27" y="25" width="2" height="1"/>
    <rect x="23" y="26" width="1" height="1"/>
    <rect x="23" y="27" width="1" height="1"/>
    <rect x="24" y="28" width="1" height="1"/>
    <rect x="14" y="31" width="20" height="1"/>
    <rect x="16" y="32" width="16" height="1"/>
    <rect x="21" y="38" width="1" height="1"/>
    <rect x="26" y="38" width="1" height="1"/>
  </g>
  <g fill="#4A3D32">
    <rect x="21" y="30" width="5" height="1"/>
  </g>
  <g fill="#5E4B3B">
    <rect x="18" y="33" width="12" height="1"/>
    <rect x="21" y="39" width="6" height="1"/>
  </g>
  <g fill="#222D3A">
    <rect x="5" y="38" width="16" height="1"/>
    <rect x="27" y="38" width="16" height="1"/>
    <rect x="4" y="39" width="17" height="1"/>
    <rect x="27" y="39" width="17" height="1"/>
    <rect x="3" y="40" width="3" height="1"/>
    <rect x="20" y="40" width="1" height="1"/>
    <rect x="27" y="40" width="1" height="1"/>
    <rect x="42" y="40" width="3" height="1"/>
    <rect x="2" y="41" width="3" height="1"/>
    <rect x="19" y="41" width="1" height="1"/>
    <rect x="28" y="41" width="1" height="1"/>
    <rect x="43" y="41" width="3" height="1"/>
    <rect x="2" y="42" width="2" height="1"/>
    <rect x="44" y="42" width="2" height="1"/>
    <rect x="2" y="43" width="2" height="1"/>
    <rect x="44" y="43" width="2" height="1"/>
    <rect x="2" y="44" width="2" height="1"/>
    <rect x="44" y="44" width="2" height="1"/>
    <rect x="2" y="45" width="2" height="1"/>
    <rect x="44" y="45" width="2" height="1"/>
    <rect x="2" y="46" width="2" height="1"/>
    <rect x="44" y="46" width="2" height="1"/>
    <rect x="2" y="47" width="2" height="1"/>
    <rect x="44" y="47" width="2" height="1"/>
    <rect x="2" y="48" width="2" height="1"/>
    <rect x="44" y="48" width="2" height="1"/>
    <rect x="2" y="49" width="2" height="1"/>
    <rect x="44" y="49" width="2" height="1"/>
    <rect x="2" y="50" width="2" height="1"/>
    <rect x="44" y="50" width="2" height="1"/>
    <rect x="2" y="51" width="2" height="1"/>
    <rect x="44" y="51" width="2" height="1"/>
    <rect x="2" y="52" width="2" height="1"/>
    <rect x="44" y="52" width="2" height="1"/>
    <rect x="3" y="53" width="1" height="1"/>
    <rect x="44" y="53" width="1" height="1"/>
    <rect x="4" y="54" width="1" height="1"/>
    <rect x="43" y="54" width="1" height="1"/>
    <rect x="5" y="55" width="1" height="1"/>
    <rect x="42" y="55" width="1" height="1"/>
  </g>
  <g fill="#1B2330">
    <rect x="6" y="40" width="14" height="1"/>
    <rect x="21" y="40" width="6" height="1"/>
    <rect x="28" y="40" width="14" height="1"/>
    <rect x="5" y="41" width="14" height="1"/>
    <rect x="21" y="41" width="6" height="1"/>
    <rect x="29" y="41" width="14" height="1"/>
    <rect x="4" y="42" width="14" height="1"/>
    <rect x="20" y="42" width="8" height="1"/>
    <rect x="30" y="42" width="14" height="1"/>
    <rect x="4" y="43" width="13" height="1"/>
    <rect x="19" y="43" width="10" height="1"/>
    <rect x="31" y="43" width="13" height="1"/>
    <rect x="4" y="44" width="12" height="1"/>
    <rect x="18" y="44" width="12" height="1"/>
    <rect x="32" y="44" width="12" height="1"/>
    <rect x="4" y="45" width="11" height="1"/>
    <rect x="17" y="45" width="14" height="1"/>
    <rect x="33" y="45" width="11" height="1"/>
    <rect x="4" y="46" width="2" height="1"/>
    <rect x="17" y="46" width="15" height="1"/>
    <rect x="34" y="46" width="10" height="1"/>
    <rect x="4" y="47" width="2" height="1"/>
    <rect x="17" y="47" width="17" height="1"/>
    <rect x="35" y="47" width="9" height="1"/>
    <rect x="4" y="48" width="2" height="1"/>
    <rect x="17" y="48" width="27" height="1"/>
    <rect x="4" y="49" width="2" height="1"/>
    <rect x="17" y="49" width="27" height="1"/>
    <rect x="4" y="50" width="2" height="1"/>
    <rect x="17" y="50" width="27" height="1"/>
    <rect x="4" y="51" width="2" height="1"/>
    <rect x="17" y="51" width="27" height="1"/>
    <rect x="4" y="52" width="2" height="1"/>
    <rect x="17" y="52" width="27" height="1"/>
    <rect x="4" y="53" width="2" height="1"/>
    <rect x="17" y="53" width="27" height="1"/>
    <rect x="5" y="54" width="38" height="1"/>
    <rect x="6" y="55" width="36" height="1"/>
  </g>
  <g fill="#10161E">
    <rect x="6" y="46" width="1" height="1"/>
    <rect x="16" y="46" width="1" height="1"/>
    <rect x="7" y="47" width="6" height="1"/>
    <rect x="14" y="47" width="2" height="1"/>
    <rect x="7" y="48" width="2" height="1"/>
    <rect x="13" y="48" width="3" height="1"/>
    <rect x="7" y="49" width="2" height="1"/>
    <rect x="10" y="49" width="6" height="1"/>
    <rect x="7" y="50" width="2" height="1"/>
    <rect x="10" y="50" width="1" height="1"/>
    <rect x="13" y="50" width="3" height="1"/>
    <rect x="7" y="51" width="2" height="1"/>
    <rect x="10" y="51" width="2" height="1"/>
    <rect x="13" y="51" width="3" height="1"/>
    <rect x="7" y="52" width="2" height="1"/>
    <rect x="13" y="52" width="3" height="1"/>
    <rect x="6" y="53" width="1" height="1"/>
    <rect x="16" y="53" width="1" height="1"/>
  </g>
</svg>
